<mxfile host="app.diagrams.net" agent="Mozilla/5.0 (Windows NT 10.0; Win64; x64) AppleWebKit/537.36 (KHTML, like Gecko) Chrome/133.0.0.0 Safari/537.36" version="26.0.14">
  <diagram name="第 1 页" id="cjYHyFAmv6pbent0GlUM">
    <mxGraphModel dx="1562" dy="845" grid="1" gridSize="10" guides="1" tooltips="1" connect="1" arrows="1" fold="1" page="1" pageScale="1" pageWidth="827" pageHeight="1169" math="0" shadow="0">
      <root>
        <mxCell id="0" />
        <mxCell id="1" parent="0" />
        <mxCell id="f2EWpejTJ3KkAe_YtKIl-2" value="" style="rounded=0;whiteSpace=wrap;html=1;" vertex="1" parent="1">
          <mxGeometry x="100" y="120" width="1030" height="670" as="geometry" />
        </mxCell>
        <mxCell id="f2EWpejTJ3KkAe_YtKIl-10" value="&lt;br&gt;&lt;font color=&quot;#ffffff&quot;&gt;&lt;span style=&quot;font-size: 15px;&quot;&gt;用户交互层&lt;/span&gt;&lt;/font&gt;" style="strokeWidth=2;html=1;shape=mxgraph.flowchart.document2;whiteSpace=wrap;size=0.25;direction=west;fillColor=light-dark(#0000FF,var(--ge-dark-color, #121212));" vertex="1" parent="1">
          <mxGeometry x="220" y="230" width="130" height="60" as="geometry" />
        </mxCell>
        <mxCell id="f2EWpejTJ3KkAe_YtKIl-12" value="PC管理端&lt;div&gt;（html + js +vue）&lt;/div&gt;" style="rounded=0;whiteSpace=wrap;html=1;" vertex="1" parent="1">
          <mxGeometry x="370" y="230" width="270" height="60" as="geometry" />
        </mxCell>
        <mxCell id="f2EWpejTJ3KkAe_YtKIl-13" value="微信小程序&lt;div&gt;（uniapp）&lt;/div&gt;" style="rounded=0;whiteSpace=wrap;html=1;" vertex="1" parent="1">
          <mxGeometry x="660" y="230" width="270" height="60" as="geometry" />
        </mxCell>
      </root>
    </mxGraphModel>
  </diagram>
</mxfile>
